<svg width="560" height="158" viewBox="0 0 560 158" fill="none" xmlns="http://www.w3.org/2000/svg">
<path fill-rule="evenodd" clip-rule="evenodd" d="M96 30.1699C96 13.5075 110.775 0 129 0C147.225 0 162 13.5076 162 30.17V130.344C162 131.714 162.839 133.131 164.859 134.081C166.941 135.06 169.307 135.03 171.058 134.105C185.999 126.207 204.414 118.893 223.605 115.776C242.823 112.654 263.423 113.659 281.914 123.173C320.678 143.118 375.437 152.386 426.5 145.364C451.869 141.876 482.338 134.978 502.741 127.537C523.276 120.047 542.152 109.312 550.5 104.224C556.213 100.742 559.024 97.0996 559.156 97.1943C559.198 97.2239 558.977 97.6194 558.5 98.5C557.718 99.9458 556.605 101.481 553.5 104.224C541.204 115.086 524.5 124 502.741 133.5C480.957 141.445 455.631 150.388 429 154.05C376.063 161.329 316.822 160.017 273.086 137.514C259.307 130.425 243.271 129.295 226.754 131.978C210.211 134.666 193.792 141.096 180.068 148.351C172.377 152.417 163.461 151.931 156.622 148.713C149.721 145.466 144 138.945 144 130.344V30.17C144 22.5961 137.284 16.4563 129 16.4563C120.716 16.4563 114 22.5961 114 30.1699V58.9456V87.2586V87.7212C114 104.384 99.2254 117.891 81 117.891C62.7746 117.891 48 104.384 48 87.7211V39.7419C48 35.1976 52.0294 31.5137 57 31.5137C61.9706 31.5137 66 35.1976 66 39.7419V87.7211C66 95.295 72.7157 101.435 81 101.435C89.2843 101.435 96 95.295 96 87.7212V87.2586V58.9456V30.1699ZM169 37C169 32.0294 173.029 28 178 28C182.971 28 187 32.0294 187 37C187 41.9706 182.971 46 178 46C173.029 46 169 41.9706 169 37ZM24 54.8546C24 50.3103 28.0294 46.6264 33 46.6264C37.9706 46.6264 42 50.3103 42 54.8546V84.1103C42 88.6546 37.9706 92.3385 33 92.3385C28.0294 92.3385 24 88.6546 24 84.1103V54.8546ZM0 69C0 64.0294 4.02944 60 9 60C13.9706 60 18 64.0294 18 69C18 73.9706 13.9706 78 9 78C4.02944 78 0 73.9706 0 69ZM178 49C173.029 49 169 52.0221 169 55.75V99.25C169 102.978 173.029 106 178 106C182.971 106 187 102.978 187 99.25V55.75C187 52.0221 182.971 49 178 49Z" fill="url(#paint0_linear_121_313)"/>
<path d="M506.021 104C498.585 104 492.163 102.467 486.755 99.3997C481.379 96.301 477.243 91.9243 474.346 86.2699C471.449 80.5834 470 73.8907 470 66.1917C470 58.6204 471.449 51.9756 474.346 46.2573C477.275 40.5069 481.363 36.0345 486.61 32.8398C491.857 29.6133 498.022 28 505.104 28C509.675 28 513.988 28.7348 518.044 30.2043C522.132 31.6419 525.738 33.8781 528.86 36.913C532.015 39.9479 534.493 43.8134 536.296 48.5095C538.099 53.1736 539 58.7322 539 65.1854V70.5044H478.209V58.8121H522.245C522.213 55.4897 521.488 52.5347 520.072 49.947C518.656 47.3274 516.676 45.2669 514.133 43.7654C511.622 42.264 508.693 41.5132 505.345 41.5132C501.772 41.5132 498.633 42.3758 495.929 44.1009C493.225 45.794 491.117 48.0303 489.604 50.8096C488.123 53.557 487.367 56.5759 487.334 59.8663V70.0731C487.334 74.3539 488.123 78.0277 489.7 81.0946C491.278 84.1295 493.483 86.4615 496.316 88.0908C499.148 89.6881 502.464 90.4868 506.262 90.4868C508.805 90.4868 511.107 90.1353 513.167 89.4325C515.227 88.6978 517.014 87.6276 518.527 86.2219C520.04 84.8163 521.183 83.0752 521.955 80.9987L538.276 82.8197C537.246 87.1005 535.282 90.8382 532.385 94.0328C529.52 97.1954 525.85 99.6553 521.376 101.412C516.901 103.137 511.783 104 506.021 104Z" fill="white"/>
<path d="M427.846 104C420.587 104 414.353 102.387 409.145 99.1601C403.968 95.9336 399.976 91.4771 397.166 85.7907C394.389 80.0723 393 73.4914 393 66.0479C393 58.5725 394.42 51.9756 397.261 46.2573C400.102 40.5069 404.11 36.0345 409.287 32.8398C414.495 29.6133 420.65 28 427.752 28C433.654 28 438.878 29.1021 443.423 31.3064C448 33.4788 451.646 36.5616 454.36 40.5549C457.075 44.5162 458.621 49.1484 459 54.4514H442.618C441.956 50.9054 440.377 47.9504 437.884 45.5864C435.422 43.1904 432.123 41.9924 427.989 41.9924C424.485 41.9924 421.407 42.9508 418.756 44.8676C416.105 46.7524 414.037 49.4678 412.554 53.0139C411.102 56.5599 410.376 60.8087 410.376 65.7604C410.376 70.776 411.102 75.0887 412.554 78.6986C414.006 82.2766 416.042 85.0399 418.661 86.9886C421.313 88.9054 424.422 89.8638 427.989 89.8638C430.514 89.8638 432.77 89.3846 434.759 88.4262C436.779 87.4359 438.468 86.0143 439.825 84.1614C441.182 82.3085 442.113 80.0563 442.618 77.4048H459C458.59 82.612 457.075 87.2282 454.455 91.2535C451.835 95.2467 448.268 98.3775 443.755 100.646C439.241 102.882 433.938 104 427.846 104Z" fill="white"/>
<path d="M361.333 102V29.0275H378.571V102H361.333ZM370 18.6707C367.27 18.6707 364.921 17.7681 362.952 15.9627C360.984 14.1258 360 11.9245 360 9.3591C360 6.76199 360.984 4.56078 362.952 2.75547C364.921 0.91849 367.27 0 370 0C372.762 0 375.111 0.91849 377.048 2.75547C379.016 4.56078 380 6.76199 380 9.3591C380 11.9245 379.016 14.1258 377.048 15.9627C375.111 17.7681 372.762 18.6707 370 18.6707Z" fill="white"/>
<path d="M270 29L244.005 102H224.995L199 29H217.344L234.12 83.2272H234.88L251.703 29H270Z" fill="white"/>
<path fill-rule="evenodd" clip-rule="evenodd" d="M302.7 33.191C302.7 29.2195 305.927 26 309.908 26C332.05 26 350 43.9086 350 66C350 88.0914 332.05 106 309.908 106C291.464 106 275.946 93.581 271.263 76.6805C270.202 72.8527 272.452 68.8916 276.289 67.8331C280.125 66.7747 284.095 69.0197 285.156 72.8476C288.158 83.6767 298.112 91.618 309.908 91.618C324.089 91.618 335.585 80.1484 335.585 66C335.585 51.8516 324.089 40.382 309.908 40.382C305.927 40.382 302.7 37.1625 302.7 33.191Z" fill="url(#paint1_linear_121_313)"/>
<path fill-rule="evenodd" clip-rule="evenodd" d="M310 34.6364C292.678 34.6364 278.636 48.6783 278.636 66C278.636 83.3217 292.678 97.3636 310 97.3636C327.322 97.3636 341.364 83.3217 341.364 66C341.364 48.6783 327.322 34.6364 310 34.6364ZM275 66C275 46.67 290.67 31 310 31C329.33 31 345 46.67 345 66C345 85.33 329.33 101 310 101C290.67 101 275 85.33 275 66Z" fill="url(#paint2_linear_121_313)"/>
<path fill-rule="evenodd" clip-rule="evenodd" d="M342.766 62C345.105 62 347 63.8955 347 66.2337C347 86.5392 330.539 103 310.234 103C307.895 103 306 101.105 306 98.7663C306 96.4281 307.895 94.5326 310.234 94.5326C325.863 94.5326 338.533 81.8628 338.533 66.2337C338.533 63.8955 340.428 62 342.766 62Z" fill="url(#paint3_linear_121_313)"/>
<defs>
<linearGradient id="paint0_linear_121_313" x1="-6.31026e-07" y1="64.1762" x2="539.76" y2="174.963" gradientUnits="userSpaceOnUse">
<stop offset="0.111272" stop-color="#26ACF7"/>
<stop offset="0.302018" stop-color="#EF00E0"/>
<stop offset="0.696432" stop-color="#F6931F"/>
</linearGradient>
<linearGradient id="paint1_linear_121_313" x1="283.105" y1="39.9326" x2="349.174" y2="59.5852" gradientUnits="userSpaceOnUse">
<stop stop-color="#EF00E0"/>
<stop offset="1" stop-color="#26ACF7"/>
</linearGradient>
<linearGradient id="paint2_linear_121_313" x1="312.045" y1="27.5909" x2="339.632" y2="89.0665" gradientUnits="userSpaceOnUse">
<stop offset="0.131148" stop-color="#F7B026"/>
<stop offset="0.496566" stop-color="white"/>
<stop offset="1" stop-color="#EF00E0"/>
</linearGradient>
<linearGradient id="paint3_linear_121_313" x1="345.886" y1="64.0054" x2="328.436" y2="109.628" gradientUnits="userSpaceOnUse">
<stop stop-color="#EF00E0"/>
<stop offset="1" stop-color="#F59729"/>
</linearGradient>
</defs>
</svg>
